<svg width="24" height="24" viewBox="0 0 24 24" fill="none" xmlns="http://www.w3.org/2000/svg">
<path d="M23.205 11.9996C23.8517 11.2062 24.1303 10.166 23.9418 9.14322C23.7445 8.07296 23.0768 7.1758 22.136 6.66749C22.4438 5.61218 22.2417 4.4542 21.5557 3.55425C20.8771 2.66424 19.7964 2.13287 18.6647 2.13287C18.5042 2.13287 18.3445 2.1434 18.1863 2.16431C17.6308 0.876196 16.3322 0 14.8633 0C13.6983 0 12.6605 0.545486 12 1.39048C11.3395 0.545486 10.3017 0 9.13669 0C7.66711 0 6.36802 0.87698 5.81286 2.16607C5.65431 2.14521 5.49412 2.13473 5.33279 2.13473C4.18413 2.13473 3.13083 2.65249 2.44302 3.55543C1.75754 4.45538 1.55568 5.61326 1.86336 6.66842C0.92259 7.17669 0.254945 8.07404 0.0576596 9.14493C-0.130414 10.1675 0.148385 11.2073 0.794917 12.0004C0.148236 12.7938 -0.130414 13.8339 0.0581576 14.8568C0.255443 15.9271 0.923188 16.8242 1.86386 17.3325C1.55608 18.3878 1.75819 19.5458 2.44416 20.4457C3.12281 21.3358 4.20355 21.8671 5.33518 21.8671C5.49567 21.8671 5.65536 21.8566 5.81351 21.8357C6.36911 23.1239 7.66765 24 9.13669 24C10.3016 24 11.3394 23.4545 12 22.6095C12.6605 23.4545 13.6983 24 14.8633 24C16.3329 24 17.632 23.123 18.1871 21.8339C18.3456 21.8548 18.5058 21.8653 18.6672 21.8653C19.8158 21.8653 20.8692 21.3475 21.557 20.4446C22.2424 19.5446 22.4443 18.3867 22.1366 17.3316C23.0774 16.8233 23.745 15.926 23.9424 14.8551C24.1304 13.8325 23.8516 12.7927 23.205 11.9996ZM11.2531 20.449C11.2531 21.5968 10.3036 22.5306 9.13669 22.5306C8.12571 22.5306 7.25252 21.8229 7.06041 20.8477L7.05025 20.7962C7.03083 20.6822 7.02052 20.5656 7.02052 20.449C7.02052 20.11 7.10279 19.7836 7.2572 19.4912C7.81878 19.8305 8.46586 20.0125 9.14157 20.0124L9.14147 18.543C8.57616 18.5431 8.0447 18.3265 7.64495 17.9333C7.2453 17.5402 7.02516 17.0176 7.02511 16.4616L5.53127 16.4617C5.53132 17.182 5.74842 17.8692 6.15121 18.452C5.75679 19.02 5.53998 19.6877 5.52818 20.3888C5.46415 20.3946 5.39981 20.3977 5.33523 20.3977C4.66136 20.3977 4.04321 20.0939 3.63933 19.5642C3.14228 18.9121 3.07869 18.0286 3.47735 17.3134L3.65472 16.9951L3.35271 16.3182L3.01745 16.2216C2.24259 15.9984 1.67195 15.375 1.52809 14.5947C1.40216 13.9115 1.63271 13.2156 2.1321 12.7347H5.60432C5.74648 13.4028 6.08175 14.0169 6.58383 14.5108C7.23877 15.1527 8.1414 15.551 9.13679 15.551H11.2531V20.449V20.449ZM11.2531 14.0816H9.13679C8.00989 14.0816 7.0861 13.2107 7.02406 12.1172C7.02386 12.1135 7.02346 12.11 7.02326 12.1063C7.02147 12.0711 7.02052 12.0357 7.02052 12C7.02052 11.444 7.24072 10.9213 7.64042 10.5282L6.58418 9.48906C6.08195 9.98302 5.74663 10.5971 5.60437 11.2653H2.1312C1.63241 10.7845 1.40206 10.0892 1.52754 9.40673C1.6714 8.62599 2.24209 8.00238 3.0169 7.77928L3.35226 7.68274L3.65417 7.0058L3.4768 6.68762C3.07819 5.97238 3.14163 5.08873 3.63843 4.43652C4.04142 3.90749 4.65897 3.60411 5.33269 3.60411C5.39822 3.60411 5.4634 3.6073 5.52813 3.61318C5.54028 4.31353 5.75704 4.98054 6.15111 5.54802C5.74833 6.13082 5.53122 6.81801 5.53117 7.5383L7.02501 7.5385C7.02506 6.98248 7.2452 6.45987 7.64485 6.06671C8.0446 5.67355 8.57601 5.45701 9.14122 5.45701C9.14137 5.45701 9.14147 3.98762 9.14147 3.98762C8.46561 3.98762 7.81868 4.16958 7.2571 4.50887C7.10274 4.21641 7.02052 3.89001 7.02052 3.55102C7.02052 3.43479 7.03078 3.31866 7.05005 3.20508L7.06046 3.15233C7.25252 2.17714 8.12576 1.46939 9.13669 1.46939C10.3036 1.46939 11.2531 2.40318 11.2531 3.55102V14.0816V14.0816ZM12.7469 3.55112C12.7469 2.40318 13.6963 1.46939 14.8633 1.46939C15.8742 1.46939 16.7474 2.17714 16.9396 3.15233L16.9496 3.20322C16.9691 3.31744 16.9794 3.43416 16.9794 3.55102C16.9794 3.89001 16.8972 4.21641 16.7428 4.50882C16.1812 4.16953 15.5341 3.98753 14.8584 3.98758L14.8585 5.45696C15.4238 5.45691 15.9552 5.67345 16.355 6.06671C16.7547 6.45972 16.9747 6.98243 16.9748 7.53845L18.4687 7.53825C18.4686 6.81796 18.2515 6.13073 17.8487 5.54797C18.2432 4.98 18.46 4.31226 18.4718 3.61127C18.5358 3.60544 18.6001 3.6023 18.6648 3.6023C19.3386 3.6023 19.9567 3.90612 20.3607 4.43584C20.8577 5.0879 20.9213 5.97145 20.5227 6.68669L20.3449 7.0057L20.495 7.33812L20.6474 7.68191L20.9827 7.7785C21.7575 8.0017 22.3282 8.62506 22.472 9.40545C22.5979 10.0886 22.3674 10.7845 21.8679 11.2654H18.3957C18.2535 10.5973 17.9183 9.98322 17.4161 9.48921C16.7611 8.84738 15.8586 8.44908 14.8632 8.44908H12.7469V3.55112V3.55112ZM22.4724 14.5932C22.3285 15.374 21.7578 15.9976 20.9831 16.2207L20.6485 16.3171L20.3461 16.995L20.5231 17.3124C20.9217 18.0276 20.8582 18.9113 20.3615 19.5635C19.9584 20.0926 19.3409 20.3959 18.6672 20.3959C18.6016 20.3959 18.5365 20.3927 18.4718 20.3868C18.4596 19.6865 18.2428 19.0195 17.8488 18.452C18.2516 17.8692 18.4686 17.182 18.4688 16.4617L16.9749 16.4616C16.9748 17.0176 16.7548 17.5402 16.3551 17.9333C15.9554 18.3265 15.424 18.543 14.8587 18.543C14.8586 18.543 14.8585 20.0124 14.8585 20.0124C15.5343 20.0124 16.1813 19.8305 16.7429 19.4912C16.8973 19.7836 16.9795 20.11 16.9795 20.449C16.9795 20.5658 16.9692 20.6825 16.9497 20.7968L16.9396 20.8478C16.7474 21.8229 15.8742 22.5306 14.8633 22.5306C13.6963 22.5306 12.7469 21.5968 12.7469 20.449V9.91837H14.8632C15.9901 9.91837 16.9138 10.7893 16.9759 11.8828C16.9761 11.8865 16.9765 11.89 16.9767 11.8937C16.9785 11.9289 16.9794 11.9643 16.9794 12C16.9794 12.556 16.7593 13.0787 16.3595 13.4718L17.4157 14.5109C17.918 14.017 18.2534 13.4029 18.3956 12.7347H21.8687C22.3675 13.2155 22.5979 13.9108 22.4724 14.5932Z" fill="url(#paint0_linear_5_34)"/>
<defs>
<linearGradient id="paint0_linear_5_34" x1="19.1709" y1="5.14286" x2="2.90115" y2="22.5538" gradientUnits="userSpaceOnUse">
<stop stop-color="#08A8B2"/>
<stop offset="1" stop-color="#08CFDC"/>
</linearGradient>
</defs>
</svg>
