<svg width="303" height="61" viewBox="0 0 303 61" fill="none" xmlns="http://www.w3.org/2000/svg">
<g clip-path="url(#clip0_1_2)">
<rect width="303" height="61" fill="white"/>
<path d="M17.8652 43.072C17.5052 43.072 17.1812 43.036 16.8932 42.964C16.6292 42.868 16.4732 42.712 16.4252 42.496L10.2692 18.844C10.2452 18.772 10.2212 18.688 10.1972 18.592C10.1732 18.496 10.1612 18.412 10.1612 18.34C10.1612 17.932 10.6772 17.728 11.7092 17.728H12.0692C12.4292 17.728 12.7412 17.776 13.0052 17.872C13.2932 17.944 13.4612 18.088 13.5092 18.304L17.7212 34.72C17.8652 35.224 17.9972 35.776 18.1172 36.376C18.2372 36.952 18.3452 37.504 18.4412 38.032C18.5372 38.56 18.5972 39.004 18.6212 39.364H18.7652C18.8612 38.98 18.9452 38.596 19.0172 38.212C19.1132 37.828 19.2092 37.444 19.3052 37.06C19.4012 36.676 19.4972 36.292 19.5932 35.908L23.9492 18.34C23.9972 18.1 24.1532 17.944 24.4172 17.872C24.6812 17.776 24.9932 17.728 25.3532 17.728H25.9292C26.2892 17.728 26.6012 17.776 26.8652 17.872C27.1292 17.944 27.2852 18.1 27.3332 18.34L31.4732 34.72C31.6172 35.224 31.7372 35.764 31.8332 36.34C31.9532 36.916 32.0612 37.468 32.1572 37.996C32.2532 38.524 32.3132 38.98 32.3372 39.364H32.4812C32.5772 38.98 32.6612 38.572 32.7332 38.14C32.8292 37.708 32.9252 37.3 33.0212 36.916C33.1172 36.532 33.2012 36.208 33.2732 35.944L37.6292 18.304C37.6772 18.088 37.8332 17.944 38.0972 17.872C38.3852 17.776 38.7092 17.728 39.0692 17.728H39.2852C40.3172 17.728 40.8332 17.932 40.8332 18.34C40.8332 18.364 40.8212 18.436 40.7972 18.556C40.7732 18.676 40.7492 18.772 40.7252 18.844L34.4972 42.496C34.4492 42.712 34.2812 42.868 33.9932 42.964C33.7292 43.036 33.4172 43.072 33.0572 43.072H31.5812C31.2212 43.072 30.8972 43.036 30.6092 42.964C30.3452 42.868 30.1892 42.712 30.1412 42.496L26.7212 29.716C26.4572 28.732 26.2052 27.616 25.9652 26.368C25.7492 25.12 25.6052 24.052 25.5332 23.164H25.3892C25.3172 24.028 25.1972 24.976 25.0292 26.008C24.8852 27.016 24.7172 27.844 24.5252 28.492L20.7812 42.496C20.7332 42.712 20.5652 42.868 20.2772 42.964C20.0132 43.036 19.7012 43.072 19.3412 43.072H17.8652Z" fill="black"/>
<path d="M60.1348 17.928C60.4948 17.928 60.8188 17.964 61.1068 18.036C61.3708 18.132 61.5268 18.288 61.5748 18.504L67.7308 42.156C67.7548 42.228 67.7788 42.312 67.8028 42.408C67.8268 42.504 67.8388 42.588 67.8388 42.66C67.8388 43.068 67.3228 43.272 66.2908 43.272H65.9308C65.5708 43.272 65.2588 43.224 64.9948 43.128C64.7068 43.056 64.5388 42.912 64.4908 42.696L60.2788 26.28C60.1348 25.776 60.0028 25.224 59.8828 24.624C59.7628 24.048 59.6548 23.496 59.5588 22.968C59.4628 22.44 59.4028 21.996 59.3788 21.636H59.2348C59.1388 22.02 59.0548 22.404 58.9828 22.788C58.8868 23.172 58.7908 23.556 58.6948 23.94C58.5988 24.324 58.5028 24.708 58.4068 25.092L54.0508 42.66C54.0028 42.9 53.8468 43.056 53.5828 43.128C53.3188 43.224 53.0068 43.272 52.6468 43.272H52.0708C51.7108 43.272 51.3988 43.224 51.1348 43.128C50.8708 43.056 50.7148 42.9 50.6668 42.66L46.5268 26.28C46.3828 25.776 46.2628 25.236 46.1668 24.66C46.0468 24.084 45.9388 23.532 45.8428 23.004C45.7468 22.476 45.6868 22.02 45.6628 21.636H45.5188C45.4228 22.02 45.3388 22.428 45.2668 22.86C45.1708 23.292 45.0748 23.7 44.9788 24.084C44.8828 24.468 44.7988 24.792 44.7268 25.056L40.3708 42.696C40.3228 42.912 40.1668 43.056 39.9028 43.128C39.6148 43.224 39.2908 43.272 38.9308 43.272H38.7148C37.6828 43.272 37.1668 43.068 37.1668 42.66C37.1668 42.636 37.1788 42.564 37.2028 42.444C37.2268 42.324 37.2508 42.228 37.2748 42.156L43.5028 18.504C43.5508 18.288 43.7188 18.132 44.0068 18.036C44.2708 17.964 44.5828 17.928 44.9428 17.928H46.4188C46.7788 17.928 47.1028 17.964 47.3908 18.036C47.6548 18.132 47.8108 18.288 47.8588 18.504L51.2788 31.284C51.5428 32.268 51.7948 33.384 52.0348 34.632C52.2508 35.88 52.3948 36.948 52.4668 37.836H52.6108C52.6828 36.972 52.8028 36.024 52.9708 34.992C53.1148 33.984 53.2828 33.156 53.4748 32.508L57.2188 18.504C57.2668 18.288 57.4348 18.132 57.7228 18.036C57.9868 17.964 58.2988 17.928 58.6588 17.928H60.1348Z" fill="black"/>
<path d="M10.5874 32.84C10.7474 32.84 10.8274 32.616 10.8274 32.168V31.912C10.8274 31.6667 10.7901 31.464 10.7154 31.304C10.6514 31.1333 10.5288 31.0107 10.3474 30.936L5.65944 29.08L10.3314 27.224C10.5128 27.1493 10.6354 27.032 10.6994 26.872C10.7741 26.7013 10.8114 26.4933 10.8114 26.248V25.992C10.8114 25.5547 10.7314 25.336 10.5714 25.336C10.5394 25.336 10.5021 25.3413 10.4594 25.352C10.4274 25.352 10.3848 25.3627 10.3314 25.384L3.62744 28.248C3.32877 28.3867 3.17944 28.6107 3.17944 28.92V29.224C3.17944 29.5333 3.32877 29.7573 3.62744 29.896L10.3474 32.776C10.4328 32.8187 10.5128 32.84 10.5874 32.84Z" fill="#08CFDC"/>
<path d="M67.4034 32.84C67.2434 32.84 67.1634 32.616 67.1634 32.168V31.912C67.1634 31.6667 67.2008 31.464 67.2754 31.304C67.3501 31.1333 67.4728 31.0107 67.6434 30.936L72.3314 29.08L67.6594 27.224C67.4888 27.1493 67.3661 27.032 67.2914 26.872C67.2168 26.7013 67.1794 26.4933 67.1794 26.248V25.992C67.1794 25.5547 67.2594 25.336 67.4194 25.336C67.4514 25.336 67.4888 25.3413 67.5314 25.352C67.5741 25.352 67.6168 25.3627 67.6594 25.384L74.3634 28.248C74.6621 28.3867 74.8114 28.6107 74.8114 28.92V29.224C74.8114 29.5333 74.6621 29.7573 74.3634 29.896L67.6434 32.776C67.5581 32.8187 67.4781 32.84 67.4034 32.84Z" fill="#08CFDC"/>
<path d="M90.8008 39.048C90.5608 39.048 90.3448 39.024 90.1528 38.976C89.9768 38.912 89.8728 38.808 89.8408 38.664L85.7368 22.896C85.7208 22.848 85.7048 22.792 85.6888 22.728C85.6728 22.664 85.6648 22.608 85.6648 22.56C85.6648 22.288 86.0088 22.152 86.6968 22.152H86.9368C87.1768 22.152 87.3848 22.184 87.5608 22.248C87.7528 22.296 87.8648 22.392 87.8968 22.536L90.7048 33.48C90.8008 33.816 90.8888 34.184 90.9688 34.584C91.0488 34.968 91.1208 35.336 91.1848 35.688C91.2488 36.04 91.2888 36.336 91.3047 36.576H91.4008C91.4648 36.32 91.5208 36.064 91.5688 35.808C91.6328 35.552 91.6968 35.296 91.7608 35.04C91.8248 34.784 91.8888 34.528 91.9528 34.272L94.8568 22.56C94.8888 22.4 94.9928 22.296 95.1688 22.248C95.3448 22.184 95.5528 22.152 95.7928 22.152H96.1768C96.4168 22.152 96.6248 22.184 96.8008 22.248C96.9768 22.296 97.0808 22.4 97.1128 22.56L99.8728 33.48C99.9688 33.816 100.049 34.176 100.113 34.56C100.193 34.944 100.265 35.312 100.329 35.664C100.393 36.016 100.433 36.32 100.449 36.576H100.545C100.609 36.32 100.665 36.048 100.713 35.76C100.777 35.472 100.841 35.2 100.905 34.944C100.969 34.688 101.025 34.472 101.073 34.296L103.977 22.536C104.009 22.392 104.113 22.296 104.289 22.248C104.481 22.184 104.697 22.152 104.937 22.152H105.081C105.769 22.152 106.113 22.288 106.113 22.56C106.113 22.576 106.105 22.624 106.089 22.704C106.073 22.784 106.057 22.848 106.041 22.896L101.889 38.664C101.857 38.808 101.745 38.912 101.553 38.976C101.377 39.024 101.169 39.048 100.929 39.048H99.9448C99.7048 39.048 99.4888 39.024 99.2968 38.976C99.1208 38.912 99.0168 38.808 98.9848 38.664L96.7048 30.144C96.5288 29.488 96.3608 28.744 96.2008 27.912C96.0568 27.08 95.9608 26.368 95.9128 25.776H95.8168C95.7688 26.352 95.6888 26.984 95.5768 27.672C95.4808 28.344 95.3688 28.896 95.2408 29.328L92.7448 38.664C92.7128 38.808 92.6008 38.912 92.4088 38.976C92.2328 39.024 92.0248 39.048 91.7848 39.048H90.8008ZM109.957 39.048C109.317 39.048 108.997 38.872 108.997 38.52V26.928C108.997 26.576 109.317 26.4 109.957 26.4H110.053C110.693 26.4 111.013 26.576 111.013 26.928V38.52C111.013 38.872 110.693 39.048 110.053 39.048H109.957ZM110.005 24.72C109.621 24.72 109.349 24.672 109.189 24.576C109.029 24.48 108.949 24.352 108.949 24.192V22.752C108.949 22.592 109.029 22.464 109.189 22.368C109.349 22.272 109.621 22.224 110.005 22.224C110.389 22.224 110.661 22.272 110.821 22.368C110.981 22.448 111.061 22.576 111.061 22.752V24.192C111.061 24.352 110.981 24.48 110.821 24.576C110.661 24.672 110.389 24.72 110.005 24.72ZM118.228 39.144C117.924 39.144 117.596 39.096 117.244 39C116.892 38.92 116.556 38.768 116.236 38.544C115.916 38.304 115.652 37.968 115.444 37.536C115.236 37.088 115.132 36.52 115.132 35.832V21.48C115.132 21.128 115.452 20.952 116.092 20.952H116.188C116.828 20.952 117.148 21.128 117.148 21.48V35.64C117.148 36.36 117.276 36.84 117.532 37.08C117.788 37.304 118.092 37.416 118.444 37.416C118.796 37.416 119.028 37.4 119.14 37.368C119.252 37.32 119.364 37.296 119.476 37.296C119.588 37.296 119.676 37.376 119.74 37.536C119.82 37.696 119.876 37.872 119.908 38.064C119.956 38.24 119.98 38.36 119.98 38.424C119.98 38.632 119.876 38.792 119.668 38.904C119.476 39 119.244 39.064 118.972 39.096C118.7 39.128 118.452 39.144 118.228 39.144ZM125.353 39.144C125.049 39.144 124.721 39.096 124.369 39C124.017 38.92 123.681 38.768 123.361 38.544C123.041 38.304 122.777 37.968 122.569 37.536C122.361 37.088 122.257 36.52 122.257 35.832V21.48C122.257 21.128 122.577 20.952 123.217 20.952H123.313C123.953 20.952 124.273 21.128 124.273 21.48V35.64C124.273 36.36 124.401 36.84 124.657 37.08C124.913 37.304 125.217 37.416 125.569 37.416C125.921 37.416 126.153 37.4 126.265 37.368C126.377 37.32 126.489 37.296 126.601 37.296C126.713 37.296 126.801 37.376 126.865 37.536C126.945 37.696 127.001 37.872 127.033 38.064C127.081 38.24 127.105 38.36 127.105 38.424C127.105 38.632 127.001 38.792 126.793 38.904C126.601 39 126.369 39.064 126.097 39.096C125.825 39.128 125.577 39.144 125.353 39.144ZM130.54 43.992C130.012 43.992 129.748 43.864 129.748 43.608C129.748 43.576 129.748 43.536 129.748 43.488C129.764 43.456 129.804 43.36 129.868 43.2L132.196 37.56V39.12L127.684 27.12C127.668 27.088 127.652 27.04 127.636 26.976C127.62 26.912 127.612 26.856 127.612 26.808C127.612 26.536 127.956 26.4 128.644 26.4H128.836C129.076 26.4 129.284 26.432 129.46 26.496C129.636 26.544 129.748 26.64 129.796 26.784L132.244 33.288C132.388 33.688 132.524 34.096 132.652 34.512C132.78 34.928 132.9 35.328 133.012 35.712H133.06C133.188 35.344 133.316 34.944 133.444 34.512C133.572 34.064 133.708 33.656 133.852 33.288L136.252 26.784C136.3 26.64 136.412 26.544 136.588 26.496C136.764 26.432 136.98 26.4 137.236 26.4H137.308C137.948 26.4 138.268 26.536 138.268 26.808C138.268 26.888 138.244 27 138.196 27.144L132.028 43.488C131.964 43.664 131.828 43.792 131.62 43.872C131.428 43.952 131.188 43.992 130.9 43.992H130.54ZM154.172 34.32C153.932 34.32 153.756 34.216 153.644 34.008L149.372 26.568C149.26 26.392 149.156 26.216 149.06 26.04C148.98 25.864 148.892 25.68 148.796 25.488L148.7 25.512C148.732 25.72 148.748 25.936 148.748 26.16C148.748 26.384 148.748 26.608 148.748 26.832V38.52C148.748 38.872 148.428 39.048 147.788 39.048H147.62C146.98 39.048 146.66 38.872 146.66 38.52V22.68C146.66 22.328 146.98 22.152 147.62 22.152H148.484C148.772 22.152 148.996 22.192 149.156 22.272C149.316 22.352 149.428 22.456 149.492 22.584L154.028 30.456C154.156 30.664 154.276 30.904 154.388 31.176C154.5 31.448 154.588 31.712 154.652 31.968C154.732 31.696 154.844 31.416 154.988 31.128C155.148 30.824 155.284 30.576 155.396 30.384L159.812 22.584C159.892 22.456 160.004 22.352 160.148 22.272C160.308 22.192 160.532 22.152 160.82 22.152H161.612C162.252 22.152 162.572 22.328 162.572 22.68V38.52C162.572 38.872 162.252 39.048 161.612 39.048H161.444C160.804 39.048 160.484 38.872 160.484 38.52V26.976C160.484 26.752 160.484 26.528 160.484 26.304C160.5 26.08 160.516 25.864 160.532 25.656L160.436 25.632C160.34 25.824 160.244 26.008 160.148 26.184C160.068 26.36 159.972 26.536 159.86 26.712L155.66 34.008C155.548 34.216 155.372 34.32 155.132 34.32H154.172ZM171.615 39.144C169.807 39.144 168.423 38.6 167.463 37.512C166.519 36.424 166.047 34.848 166.047 32.784C166.047 30.704 166.527 29.104 167.487 27.984C168.447 26.864 169.823 26.304 171.615 26.304C173.375 26.304 174.719 26.864 175.647 27.984C176.591 29.088 177.063 30.688 177.063 32.784C177.063 34.864 176.599 36.448 175.671 37.536C174.759 38.608 173.407 39.144 171.615 39.144ZM171.543 37.416C172.727 37.416 173.591 37.04 174.135 36.288C174.695 35.52 174.975 34.336 174.975 32.736C174.975 31.136 174.695 29.952 174.135 29.184C173.591 28.416 172.727 28.032 171.543 28.032C170.375 28.032 169.519 28.416 168.975 29.184C168.431 29.936 168.159 31.12 168.159 32.736C168.159 34.336 168.431 35.52 168.975 36.288C169.519 37.04 170.375 37.416 171.543 37.416ZM181.415 39.048C180.775 39.048 180.455 38.872 180.455 38.52V30.096C180.455 29.44 180.431 28.896 180.383 28.464C180.335 28.032 180.287 27.704 180.239 27.48C180.191 27.24 180.167 27.104 180.167 27.072C180.167 26.96 180.215 26.872 180.311 26.808C180.423 26.728 180.551 26.672 180.695 26.64C180.839 26.592 180.983 26.56 181.127 26.544C181.271 26.528 181.383 26.52 181.463 26.52C181.655 26.52 181.799 26.608 181.895 26.784C182.007 26.96 182.087 27.176 182.135 27.432C182.199 27.672 182.255 27.896 182.303 28.104C182.815 27.544 183.399 27.104 184.055 26.784C184.711 26.464 185.375 26.304 186.047 26.304C187.279 26.304 188.239 26.648 188.927 27.336C189.615 28.024 189.959 28.976 189.959 30.192V38.52C189.959 38.872 189.639 39.048 188.999 39.048H188.903C188.263 39.048 187.943 38.872 187.943 38.52V30.384C187.943 29.648 187.727 29.08 187.295 28.68C186.879 28.264 186.279 28.056 185.495 28.056C184.951 28.056 184.407 28.208 183.863 28.512C183.335 28.816 182.871 29.224 182.471 29.736V38.52C182.471 38.872 182.151 39.048 181.511 39.048H181.415ZM197.654 39.144C196.694 39.144 195.862 38.872 195.158 38.328C194.47 37.768 193.934 37.008 193.55 36.048C193.182 35.072 192.998 33.968 192.998 32.736C192.998 30.64 193.454 29.048 194.366 27.96C195.278 26.856 196.446 26.304 197.87 26.304C198.622 26.304 199.262 26.416 199.79 26.64C200.334 26.864 200.838 27.16 201.302 27.528V21.48C201.302 21.128 201.622 20.952 202.262 20.952H202.358C202.998 20.952 203.318 21.128 203.318 21.48V35.448C203.318 36.104 203.342 36.648 203.39 37.08C203.438 37.512 203.486 37.84 203.534 38.064C203.582 38.288 203.606 38.424 203.606 38.472C203.606 38.584 203.55 38.68 203.438 38.76C203.342 38.824 203.222 38.88 203.078 38.928C202.934 38.96 202.79 38.984 202.646 39C202.502 39.016 202.39 39.024 202.31 39.024C202.118 39.024 201.966 38.936 201.854 38.76C201.758 38.568 201.678 38.344 201.614 38.088C201.566 37.816 201.518 37.568 201.47 37.344C200.878 37.952 200.262 38.408 199.622 38.712C198.998 39 198.342 39.144 197.654 39.144ZM198.062 37.392C198.59 37.392 199.134 37.256 199.694 36.984C200.27 36.696 200.806 36.28 201.302 35.736V29.16C200.87 28.792 200.406 28.52 199.91 28.344C199.414 28.168 198.894 28.08 198.35 28.08C197.278 28.08 196.47 28.472 195.926 29.256C195.382 30.024 195.11 31.12 195.11 32.544C195.11 34.096 195.366 35.296 195.878 36.144C196.39 36.976 197.118 37.392 198.062 37.392ZM206.736 39C206.672 39 206.6 38.936 206.52 38.808C206.44 38.664 206.368 38.496 206.304 38.304C206.24 38.112 206.208 37.936 206.208 37.776C206.208 37.664 206.232 37.576 206.28 37.512L213.312 28.176H207.168C206.848 28.176 206.688 27.936 206.688 27.456V27.168C206.688 26.688 206.848 26.448 207.168 26.448H215.592C215.672 26.448 215.744 26.52 215.808 26.664C215.888 26.808 215.952 26.984 216 27.192C216.048 27.384 216.072 27.552 216.072 27.696C216.072 27.792 216.056 27.872 216.024 27.936L209.016 37.272H215.616C215.936 37.272 216.096 37.512 216.096 37.992V38.28C216.096 38.76 215.936 39 215.616 39H206.736ZM223.794 39.144C221.81 39.144 220.33 38.624 219.354 37.584C218.394 36.544 217.914 34.952 217.914 32.808C217.914 31.384 218.122 30.192 218.538 29.232C218.97 28.272 219.602 27.544 220.434 27.048C221.266 26.552 222.29 26.304 223.506 26.304C224.61 26.304 225.522 26.544 226.242 27.024C226.978 27.504 227.53 28.208 227.898 29.136C228.266 30.064 228.45 31.208 228.45 32.568C228.45 32.664 228.402 32.792 228.306 32.952C228.226 33.096 228.122 33.232 227.994 33.36C227.866 33.488 227.754 33.552 227.658 33.552H220.074C220.17 34.88 220.514 35.856 221.106 36.48C221.698 37.104 222.586 37.416 223.77 37.416C224.474 37.416 225.066 37.336 225.546 37.176C226.042 37 226.434 36.832 226.722 36.672C227.01 36.496 227.194 36.408 227.274 36.408C227.386 36.408 227.506 36.488 227.634 36.648C227.762 36.808 227.874 36.984 227.97 37.176C228.066 37.368 228.114 37.512 228.114 37.608C228.114 37.752 228.002 37.912 227.778 38.088C227.554 38.264 227.242 38.432 226.842 38.592C226.458 38.752 226.002 38.888 225.474 39C224.962 39.096 224.402 39.144 223.794 39.144ZM220.074 31.824H226.314C226.314 30.56 226.074 29.616 225.594 28.992C225.114 28.352 224.394 28.032 223.434 28.032C222.394 28.032 221.594 28.352 221.034 28.992C220.474 29.616 220.154 30.56 220.074 31.824ZM234.595 39.144C234.291 39.144 233.963 39.096 233.611 39C233.259 38.92 232.923 38.768 232.603 38.544C232.283 38.304 232.019 37.968 231.811 37.536C231.603 37.088 231.499 36.52 231.499 35.832V21.48C231.499 21.128 231.819 20.952 232.459 20.952H232.555C233.195 20.952 233.515 21.128 233.515 21.48V35.64C233.515 36.36 233.643 36.84 233.899 37.08C234.155 37.304 234.459 37.416 234.811 37.416C235.163 37.416 235.395 37.4 235.507 37.368C235.619 37.32 235.731 37.296 235.843 37.296C235.955 37.296 236.043 37.376 236.107 37.536C236.187 37.696 236.243 37.872 236.275 38.064C236.323 38.24 236.347 38.36 236.347 38.424C236.347 38.632 236.243 38.792 236.035 38.904C235.843 39 235.611 39.064 235.339 39.096C235.067 39.128 234.819 39.144 234.595 39.144ZM243.059 39.144C241.075 39.144 239.595 38.624 238.619 37.584C237.659 36.544 237.179 34.952 237.179 32.808C237.179 31.384 237.387 30.192 237.803 29.232C238.235 28.272 238.867 27.544 239.699 27.048C240.531 26.552 241.555 26.304 242.771 26.304C243.875 26.304 244.787 26.544 245.507 27.024C246.243 27.504 246.795 28.208 247.163 29.136C247.531 30.064 247.715 31.208 247.715 32.568C247.715 32.664 247.667 32.792 247.571 32.952C247.491 33.096 247.387 33.232 247.259 33.36C247.131 33.488 247.019 33.552 246.923 33.552H239.339C239.435 34.88 239.779 35.856 240.371 36.48C240.963 37.104 241.851 37.416 243.035 37.416C243.739 37.416 244.331 37.336 244.811 37.176C245.307 37 245.699 36.832 245.987 36.672C246.275 36.496 246.459 36.408 246.539 36.408C246.651 36.408 246.771 36.488 246.899 36.648C247.027 36.808 247.139 36.984 247.235 37.176C247.331 37.368 247.379 37.512 247.379 37.608C247.379 37.752 247.267 37.912 247.043 38.088C246.819 38.264 246.507 38.432 246.107 38.592C245.723 38.752 245.267 38.888 244.739 39C244.227 39.096 243.667 39.144 243.059 39.144ZM239.339 31.824H245.579C245.579 30.56 245.339 29.616 244.859 28.992C244.379 28.352 243.659 28.032 242.699 28.032C241.659 28.032 240.859 28.352 240.299 28.992C239.739 29.616 239.419 30.56 239.339 31.824ZM253.555 39.048C253.315 39.048 253.099 39.024 252.907 38.976C252.731 38.912 252.627 38.808 252.595 38.664L249.427 27.288C249.411 27.208 249.387 27.12 249.354 27.024C249.323 26.928 249.307 26.856 249.307 26.808C249.307 26.68 249.387 26.584 249.547 26.52C249.723 26.44 250.011 26.4 250.411 26.4C250.651 26.4 250.859 26.432 251.035 26.496C251.227 26.544 251.339 26.64 251.371 26.784L253.387 34.464C253.467 34.72 253.555 35.128 253.651 35.688C253.747 36.248 253.843 36.76 253.939 37.224H254.035C254.115 36.76 254.203 36.264 254.299 35.736C254.411 35.192 254.507 34.76 254.587 34.44L256.579 26.808C256.611 26.648 256.715 26.544 256.891 26.496C257.067 26.432 257.275 26.4 257.515 26.4H257.683C257.923 26.4 258.131 26.432 258.307 26.496C258.483 26.544 258.587 26.648 258.619 26.808L260.635 34.44C260.811 35.08 260.931 35.608 260.995 36.024C261.075 36.44 261.147 36.856 261.211 37.272H261.259C261.339 36.84 261.419 36.36 261.499 35.832C261.595 35.288 261.691 34.84 261.786 34.488L263.803 26.784C263.835 26.64 263.947 26.544 264.139 26.496C264.331 26.432 264.547 26.4 264.787 26.4C265.427 26.4 265.747 26.536 265.747 26.808C265.747 26.856 265.739 26.904 265.723 26.952C265.723 27 265.707 27.064 265.675 27.144L262.459 38.664C262.427 38.808 262.315 38.912 262.122 38.976C261.947 39.024 261.739 39.048 261.499 39.048H260.779C260.539 39.048 260.331 39.024 260.155 38.976C259.979 38.912 259.875 38.808 259.843 38.664L257.923 31.056C257.875 30.848 257.819 30.568 257.755 30.216C257.707 29.864 257.651 29.512 257.587 29.16H257.539C257.475 29.512 257.411 29.864 257.347 30.216C257.299 30.552 257.251 30.824 257.203 31.032L255.235 38.664C255.203 38.808 255.091 38.912 254.898 38.976C254.723 39.024 254.515 39.048 254.275 39.048H253.555ZM271.244 39.216C270.524 39.216 269.876 39.128 269.3 38.952C268.724 38.776 268.268 38.568 267.932 38.328C267.596 38.088 267.428 37.88 267.428 37.704C267.428 37.608 267.476 37.464 267.572 37.272C267.668 37.08 267.78 36.904 267.908 36.744C268.036 36.584 268.156 36.504 268.268 36.504C268.332 36.504 268.476 36.584 268.7 36.744C268.924 36.904 269.236 37.064 269.636 37.224C270.052 37.384 270.54 37.464 271.1 37.464C272.668 37.464 273.452 36.872 273.452 35.688C273.452 35.048 273.22 34.584 272.756 34.296C272.308 33.992 271.74 33.728 271.052 33.504C270.492 33.312 269.956 33.088 269.444 32.832C268.932 32.56 268.516 32.184 268.196 31.704C267.876 31.224 267.716 30.576 267.716 29.76C267.716 29.088 267.884 28.488 268.22 27.96C268.572 27.432 269.044 27.024 269.636 26.736C270.244 26.432 270.932 26.28 271.7 26.28C272.244 26.28 272.756 26.328 273.236 26.424C273.716 26.52 274.108 26.648 274.412 26.808C274.716 26.968 274.868 27.136 274.868 27.312C274.868 27.44 274.82 27.608 274.724 27.816C274.644 28.024 274.548 28.208 274.436 28.368C274.324 28.528 274.212 28.608 274.1 28.608C274.036 28.608 273.82 28.504 273.452 28.296C273.084 28.088 272.572 27.984 271.916 27.984C271.324 27.984 270.82 28.128 270.404 28.416C269.988 28.688 269.78 29.08 269.78 29.592C269.78 30.04 269.908 30.4 270.164 30.672C270.42 30.928 270.916 31.176 271.652 31.416C272.388 31.656 273.044 31.944 273.62 32.28C274.196 32.6 274.652 33.016 274.988 33.528C275.324 34.024 275.492 34.672 275.492 35.472C275.492 36.192 275.3 36.832 274.916 37.392C274.548 37.952 274.044 38.4 273.404 38.736C272.764 39.056 272.044 39.216 271.244 39.216ZM279.622 39.048C278.982 39.048 278.662 38.872 278.662 38.52V21.48C278.662 21.128 278.982 20.952 279.622 20.952H279.718C280.358 20.952 280.678 21.128 280.678 21.48V32.208H280.774L285.358 26.736C285.47 26.608 285.646 26.52 285.886 26.472C286.126 26.424 286.374 26.4 286.63 26.4H286.726C287.286 26.4 287.566 26.504 287.566 26.712C287.566 26.856 287.486 27.016 287.326 27.192L282.334 33.096V31.848L287.806 38.328C287.95 38.488 288.022 38.616 288.022 38.712C288.022 38.936 287.67 39.048 286.966 39.048H286.87C286.614 39.048 286.366 39.032 286.126 39C285.886 38.968 285.702 38.88 285.574 38.736L280.774 33.048H280.678V38.52C280.678 38.872 280.358 39.048 279.718 39.048H279.622ZM292.066 39.048C291.426 39.048 291.106 38.872 291.106 38.52V26.928C291.106 26.576 291.426 26.4 292.066 26.4H292.162C292.802 26.4 293.122 26.576 293.122 26.928V38.52C293.122 38.872 292.802 39.048 292.162 39.048H292.066ZM292.114 24.72C291.73 24.72 291.458 24.672 291.298 24.576C291.138 24.48 291.058 24.352 291.058 24.192V22.752C291.058 22.592 291.138 22.464 291.298 22.368C291.458 22.272 291.73 22.224 292.114 22.224C292.498 22.224 292.77 22.272 292.93 22.368C293.09 22.448 293.17 22.576 293.17 22.752V24.192C293.17 24.352 293.09 24.48 292.93 24.576C292.77 24.672 292.498 24.72 292.114 24.72ZM297.457 39.048C296.817 39.048 296.497 38.872 296.497 38.52V36.936C296.497 36.584 296.817 36.408 297.457 36.408H297.865C298.505 36.408 298.825 36.584 298.825 36.936V38.52C298.825 38.872 298.505 39.048 297.865 39.048H297.457Z" fill="black"/>
</g>
<defs>
<clipPath id="clip0_1_2">
<rect width="303" height="61" fill="white"/>
</clipPath>
</defs>
</svg>
